# xmcd CD database file
#
# Track frame offsets:
#	150
#	72139
#	104981
#	135108
#	163807
#	189784
#	204466
#	220343
#	282687
#	295519
#	311286
#	323968
#	339525
#
# Disc length: 4737 seconds
#
# Revision: 0
# Processed by: cddbd v1.5.1PL2 Copyright (c) Steve Scherf et al.
# Submitted via: CDex 1.50beta10
#
DISCID=c7127f0d
DTITLE=Sonny Criss - Memorial Album
DYEAR=1900
DGENRE=Jazz
TTITLE0=Backbreaker
TTITLE1=Be-Bop
TTITLE2=Groovin' High
TTITLE3=Hot House
TTITLE4=The Man I Love
TTITLE5=Ornithology
TTITLE6=Body And Soul
TTITLE7=Blow Blow Blow
TTITLE8=Blue Lou
TTITLE9=The Creep
TTITLE10=Out Of Nowhere
TTITLE11=Semi-Quiet
TTITLE12=Blue 'N' Boogie
EXTD=
EXTT0=
EXTT1=
EXTT2=
EXTT3=
EXTT4=
EXTT5=
EXTT6=
EXTT7=
EXTT8=
EXTT9=
EXTT10=
EXTT11=
EXTT12=
PLAYORDER=
